<svg id="_001-user" data-name="001-user" xmlns="http://www.w3.org/2000/svg" width="11.2" height="14" viewBox="0 0 11.2 14">
  <path id="_001-user-2" data-name="001-user" d="M64.122,28.559A12.832,12.832,0,0,0,69.6,29.988a11.6,11.6,0,0,0,5.487-1.433.233.233,0,0,0,.113-.2A7.512,7.512,0,0,0,73.573,23.5a5.288,5.288,0,0,0-2.67-1.74,3.033,3.033,0,1,0-2.607,0,5.289,5.289,0,0,0-2.67,1.74A7.512,7.512,0,0,0,64,28.354.233.233,0,0,0,64.122,28.559Zm2.912-9.538A2.567,2.567,0,1,1,69.6,21.588,2.567,2.567,0,0,1,67.033,19.021ZM65.984,23.8a4.618,4.618,0,0,1,7.232,0,7,7,0,0,1,1.516,4.418,11.419,11.419,0,0,1-5.132,1.3,12.5,12.5,0,0,1-5.132-1.308A7,7,0,0,1,65.984,23.8Z" transform="translate(-64 -15.988)"/>
</svg>
