<svg xmlns="http://www.w3.org/2000/svg" width="12.244" height="11.874" viewBox="0 0 12.244 11.874">
  <defs>
    <style>
      .cls-1, .cls-2 {
        stroke: none;
      }

      .cls-2 {
        fill: #fff;
      }
    </style>
  </defs>
  <g id="_003-star" data-name="003-star" transform="translate(1.701 -8.998)">
    <path class="cls-1" d="M 6.753768920898438 20.02156448364258 L 6.753708839416504 20.02156448364258 C 6.435728549957275 20.02156448364258 6.131328582763672 19.92252349853516 5.873418807983398 19.73514366149902 L 4.421447277069092 18.68025970458984 L 2.969468832015991 19.73513412475586 C 2.711698770523071 19.92246437072754 2.407288789749146 20.02152442932129 2.089248657226563 20.02154350280762 C 1.771228671073914 20.02156448364258 1.466788768768311 19.92251396179199 1.208868741989136 19.73510360717773 C 0.6823487281799316 19.35259437561035 0.4636987149715424 18.6796932220459 0.6648387312889099 18.06070327758789 L 1.219397306442261 16.35385322570801 L 0.9909087419509888 16.18784332275391 C 0.9185232520103455 16.13523292541504 0.8554790616035461 16.07451629638672 0.8020831942558289 16.00780296325684 C 0.7207304835319519 15.97709369659424 0.6432730555534363 15.93532848358154 0.5713987350463867 15.88305377960205 L -0.2325212806463242 15.29896354675293 C -0.7590612769126892 14.91629409790039 -0.9776512980461121 14.2434139251709 -0.7765612602233887 13.62452411651611 C -0.5754212737083435 13.00554370880127 -0.003031278727576137 12.58967399597168 0.6477887034416199 12.58967399597168 L 2.442497968673706 12.58964443206787 L 2.997118711471558 10.88279342651367 C 3.19826865196228 10.26381397247314 3.770668745040894 9.847953796386719 4.421468734741211 9.847953796386719 C 5.072338581085205 9.847953796386719 5.644738674163818 10.26384353637695 5.845818519592285 10.88283348083496 L 6.400435924530029 12.58964443206787 L 8.195138931274414 12.58967399597168 C 8.845988273620605 12.58967399597168 9.418398857116699 13.00556373596191 9.619488716125488 13.62457370758057 C 9.820598602294922 14.24349403381348 9.601968765258789 14.91639423370361 9.075438499450684 15.29894351959229 L 7.623507499694824 16.3538761138916 L 8.178078651428223 18.06076431274414 C 8.379188537597656 18.67971420288086 8.160558700561523 19.35260391235352 7.634018898010254 19.73516464233398 C 7.376088619232178 19.92252349853516 7.071728706359863 20.02154350280762 6.753768920898438 20.02156448364258 Z M 4.421458721160889 16.48999404907227 C 4.629718780517578 16.48999404907227 4.828848838806152 16.55471420288086 4.997318744659424 16.67715454101563 L 5.87608528137207 17.31560134887695 L 5.540398597717285 16.28240394592285 C 5.408868789672852 15.87758350372314 5.551858901977539 15.4374942779541 5.896208763122559 15.18729400634766 L 6.775110721588135 14.54871654510498 L 5.688768863677979 14.54870414733887 C 5.263058662414551 14.54870414733887 4.888668537139893 14.27665424346924 4.757158756256104 13.87174415588379 L 4.421470165252686 12.83867359161377 L 4.085738658905029 13.87188339233398 C 3.954248666763306 14.27668380737305 3.579858779907227 14.54871368408203 3.1541588306427 14.54871368408203 L 2.059469699859619 14.54873085021973 C 2.087917804718018 14.56534957885742 2.115661382675171 14.58346939086914 2.14262866973877 14.6030740737915 L 2.946688652038574 15.18729400634766 C 3.291058778762817 15.43755340576172 3.434018611907959 15.87762355804443 3.302498817443848 16.28240394592285 L 2.966809749603271 17.31559944152832 L 3.845718622207642 16.67706298828125 C 4.014168739318848 16.55467414855957 4.213258743286133 16.48999404907227 4.421458721160889 16.48999404907227 Z"/>
    <path class="cls-2" d="M 6.753708839416504 19.17156410217285 C 6.88710880279541 19.17155456542969 7.020548820495605 19.13020324707031 7.134398937225342 19.04750442504883 C 7.362088680267334 18.8820743560791 7.456648826599121 18.59107398986816 7.369678497314453 18.32341384887695 L 6.624288558959961 16.02921295166016 L 8.57581901550293 14.61128425598145 C 8.803508758544922 14.44585418701172 8.898048400878906 14.15485382080078 8.811079025268555 13.88719367980957 C 8.724119186401367 13.61951351165771 8.476588249206543 13.43967342376709 8.195128440856934 13.43967342376709 L 5.782888889312744 13.4396333694458 L 5.037408828735352 11.14545345306396 C 4.950458526611328 10.87779426574707 4.70292854309082 10.69795417785645 4.421468734741211 10.69795417785645 C 4.140018939971924 10.69795417785645 3.892498731613159 10.87779426574707 3.805508613586426 11.14547348022461 L 3.060048818588257 13.4396333694458 L 0.6477887034416199 13.43967342376709 C 0.3663387298583984 13.43967342376709 0.1188187226653099 13.61951351165771 0.03183872252702713 13.88719367980957 C -0.05513127893209457 14.15485382080078 0.03941871970891953 14.44583415985107 0.2670987248420715 14.61130428314209 L 1.07136869430542 15.19564342498779 C 1.094355702400208 15.21236228942871 1.120987892150879 15.22040843963623 1.147386193275452 15.2204065322876 C 1.187446117401123 15.22040462493896 1.226957678794861 15.20187091827393 1.252298712730408 15.16699409484863 C 1.29434871673584 15.1091136932373 1.281518697738647 15.02811431884766 1.22364866733551 14.98606395721436 L 0.4193987250328064 14.40172386169434 C 0.282768726348877 14.3024435043335 0.2260487228631973 14.12787342071533 0.2782287299633026 13.96725368499756 C 0.3303987085819244 13.80666351318359 0.4789287149906158 13.69875431060791 0.6477887034416199 13.69875431060791 L 3.1541588306427 13.69871425628662 C 3.21026873588562 13.69871425628662 3.260008811950684 13.66258430480957 3.277348756790161 13.60920429229736 L 4.051888942718506 11.22554397583008 C 4.104078769683838 11.0649242401123 4.252608776092529 10.9570140838623 4.421468734741211 10.9570140838623 C 4.590338706970215 10.9570140838623 4.738848686218262 11.06490421295166 4.791028499603271 11.22550392150879 L 5.56558895111084 13.60918426513672 C 5.582928657531738 13.66257381439209 5.632668495178223 13.69870376586914 5.688778877258301 13.69870376586914 L 8.195128440856934 13.69873428344727 C 8.363988876342773 13.69873428344727 8.512518882751465 13.80664348602295 8.564688682556152 13.96725368499756 C 8.616878509521484 14.12786388397217 8.560168266296387 14.30243396759033 8.423539161682129 14.40170383453369 L 6.395848751068115 15.87494373321533 C 6.35045862197876 15.90792369842529 6.331458568572998 15.966383934021 6.348798751831055 16.01975440979004 L 7.123268604278564 18.40344429016113 C 7.175448894500732 18.56405448913574 7.118708610534668 18.73864364624023 6.982098579406738 18.83791351318359 C 6.913783550262451 18.88753890991211 6.833739757537842 18.9123477935791 6.753692150115967 18.9123477935791 C 6.673644542694092 18.9123477935791 6.593593597412109 18.88753318786621 6.525288581848145 18.83791351318359 L 4.497578620910645 17.3647346496582 C 4.474883556365967 17.34823799133301 4.448171138763428 17.33999061584473 4.421456336975098 17.33999061584473 C 4.394741058349609 17.33999061584473 4.368023872375488 17.34823799133301 4.345318794250488 17.3647346496582 L 2.317608833312988 18.83789443969727 C 2.249312162399292 18.88753318786621 2.169274091720581 18.9123420715332 2.089233875274658 18.9123420715332 C 2.009174108505249 18.9123420715332 1.929112076759338 18.88751983642578 1.860798716545105 18.83789443969727 C 1.724188685417175 18.73864364624023 1.667448759078979 18.56405448913574 1.719628691673279 18.40344429016113 L 2.494098663330078 16.01975440979004 C 2.511438608169556 15.966383934021 2.492438793182373 15.90792369842529 2.44705867767334 15.87494373321533 L 1.642808675765991 15.29059410095215 C 1.61979877948761 15.27386569976807 1.593158602714539 15.26581573486328 1.566754221916199 15.26581573486328 C 1.526705384254456 15.26581573486328 1.4872145652771 15.2843542098999 1.461878776550293 15.31925392150879 C 1.419828772544861 15.37712383270264 1.432658672332764 15.4581241607666 1.490528702735901 15.50018405914307 L 2.218618631362915 16.02918434143066 L 1.473228693008423 18.32338333129883 C 1.386248707771301 18.591064453125 1.480808734893799 18.88203430175781 1.708508729934692 19.04745292663574 C 1.822367668151855 19.13018417358398 1.955769538879395 19.17154884338379 2.089204549789429 19.17154121398926 C 2.222607135772705 19.17153358459473 2.356042623519897 19.13017463684082 2.469868659973145 19.04745292663574 L 4.421448707580566 17.62961387634277 L 6.373028755187988 19.0474739074707 C 6.486898899078369 19.13020324707031 6.620278835296631 19.17156410217285 6.753708839416504 19.17156410217285 M 6.753838539123535 20.87156295776367 L 6.753768920898438 20.87156295776367 L 6.753708839416504 20.87156295776367 C 6.255048751831055 20.87156295776367 5.777888774871826 20.71638298034668 5.373808860778809 20.42281341552734 L 4.421441078186035 19.73089790344238 L 3.469068765640259 20.42280387878418 C 3.065208673477173 20.71629333496094 2.588048696517944 20.87150382995605 2.089338779449463 20.87154388427734 C 1.590598702430725 20.87158393859863 1.113358736038208 20.71639442443848 0.7092286944389343 20.42275428771973 C -0.1161012798547745 19.82316398620605 -0.4588512778282166 18.76833343505859 -0.1435612738132477 17.79802322387695 L 0.2230030000209808 16.66980743408203 C 0.1712001860141754 16.63936996459961 0.1206391975283623 16.60624694824219 0.07147872447967529 16.57049369812012 L -0.7321412563323975 15.98663425445557 C -1.557541251182556 15.38675403594971 -1.900181293487549 14.33199405670166 -1.584951281547546 13.36185359954834 C -1.269671320915222 12.39157390594482 -0.3724012672901154 11.73967361450195 0.6477887034416199 11.73967361450195 L 1.824937343597412 11.73965454101563 L 2.188718795776367 10.62011337280273 C 2.504048824310303 9.649824142456055 3.40130877494812 8.997953414916992 4.421468734741211 8.997953414916992 C 5.441738605499268 8.997953414916992 6.339018821716309 9.649893760681152 6.654238700866699 10.62022399902344 L 7.017987251281738 11.73965454101563 L 8.195158958435059 11.73967361450195 C 9.215388298034668 11.73967361450195 10.11267852783203 12.39161396026611 10.42789840698242 13.3619441986084 C 10.74313831329346 14.33212375640869 10.40042877197266 15.38693428039551 9.575068473815918 15.98660373687744 L 8.622729301452637 16.67854690551758 L 8.986478805541992 17.79811477661133 C 9.301738739013672 18.76834297180176 8.959009170532227 19.82314300537109 8.133648872375488 20.42282295227051 C 7.729498863220215 20.71639442443848 7.252418518066406 20.87152290344238 6.753838539123535 20.87156295776367 Z M 4.018786430358887 15.18267440795898 C 4.091548442840576 15.3328914642334 4.143342018127441 15.49241542816162 4.172711372375488 15.65671539306641 C 4.254575252532959 15.64560890197754 4.3376145362854 15.63999366760254 4.421458721160889 15.63999366760254 C 4.505287647247314 15.63999366760254 4.588335514068604 15.64560985565186 4.670177936553955 15.65670680999756 C 4.699546337127686 15.49235153198242 4.751320838928223 15.33289527893066 4.824105262756348 15.18263912200928 C 4.677174091339111 15.10400104522705 4.541678428649902 15.00555038452148 4.421483039855957 14.89011287689209 C 4.301265239715576 15.00557136535645 4.165753841400146 15.10402488708496 4.018786430358887 15.18267440795898 Z"/>
  </g>
</svg>
