<svg xmlns="http://www.w3.org/2000/svg" width="12.208" height="12" viewBox="0 0 12.208 12">
  <defs>
    <style>
      .cls-1 {
        fill: #b83279;
      }
    </style>
  </defs>
  <g id="chat" transform="translate(-4.498 -17.16)">
    <path id="Path_19383" data-name="Path 19383" class="cls-1" d="M16.524,18.62a1.47,1.47,0,0,0-1.359-1.306c-.619-.043-1.238-.078-1.841-.1-1.332-.056-1.888.007-4.015-.045a19.138,19.138,0,0,0-4.118.307c-.578.022-.688,2.811-.688,2.811s-.046,3.357.136,5.022A1.472,1.472,0,0,0,6,26.611c1.625.114,3.279.168,4.918.16h0a.389.389,0,0,1,.32.165,10.19,10.19,0,0,0,2.1,2.056.818.818,0,0,0,1.314-.651v-1.33a.393.393,0,0,1,.364-.391l.134-.009h.01A1.471,1.471,0,0,0,16.524,25.3q.012-.111.024-.222A.278.278,0,1,0,16,25.024c-.007.072-.015.145-.023.217a.916.916,0,0,1-.846.815h-.01l-.132.009a.95.95,0,0,0-.882.944v1.33a.263.263,0,0,1-.422.21A9.652,9.652,0,0,1,11.7,26.619a.943.943,0,0,0-.776-.4h-.006c-1.624.008-3.265-.045-4.876-.158A.912.912,0,0,1,5.26,25.5a.9.9,0,0,1-.068-.258,30.231,30.231,0,0,1,0-6.565.915.915,0,0,1,.846-.812,65.125,65.125,0,0,1,7.263-.1c.6.025,1.212.059,1.825.1a.915.915,0,0,1,.847.812,30.212,30.212,0,0,1,.115,5.248.278.278,0,0,0,.554.036,30.772,30.772,0,0,0-.117-5.345Z"/>
    <path id="Path_19384" data-name="Path 19384" class="cls-1" d="M279.224,262.178c0-.476-.233-.863-.52-.863s-.52.387-.52.863.233.863.52.863S279.224,262.654,279.224,262.178Z" transform="translate(-270.128 -240.942)"/>
    <path id="Path_19385" data-name="Path 19385" class="cls-1" d="M387.635,262.178c0-.476-.233-.863-.52-.863s-.52.387-.52.863.233.863.52.863S387.635,262.654,387.635,262.178Z" transform="translate(-374.527 -240.942)"/>
    <path id="Path_19386" data-name="Path 19386" class="cls-1" d="M295.037,325.092a2.116,2.116,0,0,0,1.953-1.3.278.278,0,1,0-.511-.216,1.564,1.564,0,0,1-2.884,0,.278.278,0,0,0-.511.216A2.116,2.116,0,0,0,295.037,325.092Z" transform="translate(-284.455 -300.739)"/>
  </g>
</svg>
