<svg xmlns="http://www.w3.org/2000/svg" width="12.597" height="14" viewBox="0 0 12.597 14">
  <g id="gift_1_" data-name="gift (1)" transform="translate(-24.049 0)">
    <g id="Group_14907" data-name="Group 14907" transform="translate(24.049 0)">
      <path id="Path_19405" data-name="Path 19405" d="M36.413,1.869h-5.5L32.379.4a.233.233,0,0,0-.324-.336l-.006.006-1.7,1.7-1.7-1.7a.233.233,0,0,0-.33.33l1.468,1.468h-5.5a.233.233,0,0,0-.233.233V4.435a.233.233,0,0,0,.233.233h.467v9.1a.233.233,0,0,0,.233.233H35.713a.233.233,0,0,0,.233-.233v-9.1h.467a.233.233,0,0,0,.233-.233V2.1A.233.233,0,0,0,36.413,1.869Zm-6.3,11.664h-4.9V4.668h4.9Zm0-9.331h-5.6V2.336h5.6Zm5.366,9.331h-4.9V4.668h4.9Zm.7-9.331h-5.6V2.336h5.6Z" transform="translate(-24.049 0)"/>
    </g>
  </g>
</svg>
