<svg id="logout" xmlns="http://www.w3.org/2000/svg" width="14.636" height="14" viewBox="0 0 14.636 14">
  <defs>
    <style>
      .cls-1 {
        fill: #d0021b;
      }
    </style>
  </defs>
  <path id="Path_19406" data-name="Path 19406" class="cls-1" d="M149.809,219.955h9.227a.477.477,0,0,0,0-.955h-9.227a.477.477,0,1,0,0,.955Zm0,0" transform="translate(-149.332 -212.477)"/>
  <path id="Path_19407" data-name="Path 19407" class="cls-1" d="M149.818,139.7a.474.474,0,0,0,.337-.14l2.545-2.545a.478.478,0,0,0,0-.675l-2.545-2.545a.477.477,0,0,0-.675.675l2.208,2.208-2.208,2.208a.477.477,0,0,0,.338.814Zm0,0" transform="translate(-142.659 -129.676)"/>
  <path id="Path_19408" data-name="Path 19408" class="cls-1" d="M6.548,14.332A7,7,0,1,0,.033,4.771a.477.477,0,1,0,.888.349,6.045,6.045,0,1,1,0,4.423.477.477,0,1,0-.888.349,6.964,6.964,0,0,0,6.515,4.439Zm0,0" transform="translate(1.088 -0.332)"/>
</svg>
