<svg id="surface1" xmlns="http://www.w3.org/2000/svg" width="10.391" height="14" viewBox="0 0 10.391 14">
  <path id="Path_19401" data-name="Path 19401" d="M9.3,5.387V4.1a4.1,4.1,0,0,0-8.2,0V5.387A1.369,1.369,0,0,0,0,6.727V8.279a.273.273,0,0,0,.547,0V6.727a.821.821,0,0,1,.82-.82H9.023a.821.821,0,0,1,.82.82v5.906a.822.822,0,0,1-.547.773V11.758a.273.273,0,0,0-.547,0v1.7H1.367a.821.821,0,0,1-.82-.82v-2.16a.273.273,0,0,0-.547,0v2.16A1.369,1.369,0,0,0,1.367,14H9.023a1.369,1.369,0,0,0,1.367-1.367V6.727A1.369,1.369,0,0,0,9.3,5.387Zm-6.18-.028V4.1a2.078,2.078,0,0,1,4.156,0V5.359Zm4.7,0V4.1a2.625,2.625,0,0,0-5.25,0V5.359h-.93V4.1a3.555,3.555,0,0,1,7.109,0V5.359Zm0,0"/>
  <path id="Path_19402" data-name="Path 19402" d="M.273,333.035A.273.273,0,1,0,0,332.761a.273.273,0,0,0,.273.273Zm0,0" transform="translate(0 -323.397)"/>
  <path id="Path_19403" data-name="Path 19403" d="M137.6,280.893a.821.821,0,0,0,.82-.82v-1.452a1.477,1.477,0,1,0-1.641,0v1.457A.821.821,0,0,0,137.6,280.893Zm-.926-3.5a.93.93,0,1,1,1.349.829.273.273,0,0,0-.15.244v1.609a.273.273,0,0,1-.547,0V278.46a.273.273,0,0,0-.148-.243A.927.927,0,0,1,136.676,277.391Zm0,0" transform="translate(-132.407 -268.369)"/>
  <path id="Path_19404" data-name="Path 19404" d="M320.273,379.547a.274.274,0,1,0-.193-.08A.275.275,0,0,0,320.273,379.547Zm0,0" transform="translate(-311.25 -368.637)"/>
</svg>
